<?xml version="1.0" standalone="no"?><!DOCTYPE svg PUBLIC "-//W3C//DTD SVG 1.1//EN" "http://www.w3.org/Graphics/SVG/1.1/DTD/svg11.dtd"><svg t="1759138205774" class="icon" viewBox="0 0 1024 1024" version="1.1" xmlns="http://www.w3.org/2000/svg" p-id="4706" xmlns:xlink="http://www.w3.org/1999/xlink" width="200" height="200"><path d="M975.238095 679.375238l-297.374476-100.132571a575.683048 575.683048 0 0 0 47.835429-101.61981 544.889905 544.889905 0 0 0 28.379428-104.594286l-192.78019-1.487238v-65.755428l233.130666-1.487238v-46.32381H559.786667V151.868952h-115.053715v106.105905H226.57219v46.32381l218.185143-1.487238v70.217142h-174.835809v37.351619h360.131047a392.996571 392.996571 0 0 1-17.944381 67.242667c-13.433905 37.351619-28.379429 70.241524-28.379428 70.241524s-168.862476-59.782095-258.511238-59.782095-195.754667 35.888762-206.214095 140.483047c-10.48381 103.107048 49.298286 159.890286 135.972571 179.321905a340.041143 340.041143 0 0 0 234.617905-34.377143 553.74019 553.74019 0 0 0 135.972571-110.592l346.453334 168.740572a0.365714 0.365714 0 0 1 0.195047 0.390095A170.276571 170.276571 0 0 1 803.401143 975.238095H200.874667A152.112762 152.112762 0 0 1 48.761905 823.125333V200.899048A152.112762 152.112762 0 0 1 200.874667 48.761905H823.100952A152.112762 152.112762 0 0 1 975.238095 200.874667z m-433.347047-58.270476s-107.593143 129.999238-233.106286 129.999238-152.429714-61.269333-152.429714-106.105905 26.89219-92.647619 132.998095-100.10819c107.593143-5.973333 252.537905 76.214857 252.537905 76.214857z m0 0" fill="#02A9F1" p-id="4707"></path></svg>