<?xml version="1.0" standalone="no"?><!DOCTYPE svg PUBLIC "-//W3C//DTD SVG 1.1//EN" "http://www.w3.org/Graphics/SVG/1.1/DTD/svg11.dtd"><svg t="1761722098269" class="icon" viewBox="0 0 1024 1024" version="1.1" xmlns="http://www.w3.org/2000/svg" p-id="4700" xmlns:xlink="http://www.w3.org/1999/xlink" width="200" height="200"><path d="M511.980046 769.814834c-142.148487 0-257.796414-115.649973-257.796414-257.833253 0-142.128021 115.647927-257.798461 257.796414-257.798461 142.165884 0 257.834276 115.670439 257.834276 257.798461C769.814322 654.165884 654.145929 769.814834 511.980046 769.814834zM511.980046 216.119199c-163.138544 0-295.862381 132.723837-295.862381 295.862381 0 163.17436 132.723837 295.89922 295.862381 295.89922 163.15594 0 295.89922-132.723837 295.89922-295.89922C807.879266 348.843036 675.137009 216.119199 511.980046 216.119199zM685.504124 563.694359c-0.925069-9.242502-5.566786-13.906731-13.927197-13.906731L529.606495 549.787628c0.924045-4.63967 1.394766-7.4159 1.394766-8.359388 0-10.190083-4.662183-16.20917-13.927197-18.078751-9.283434 0.926092-14.399965 6.491855-15.304568 16.70138 0 3.717671-0.945535 6.963599-2.792603 9.736758L359.780645 549.787628c-9.286504 0-13.908778 4.66423-13.908778 13.906731 0 9.287527 4.622274 13.930267 13.908778 13.930267l130.854257 0c-21.361517 35.271318-63.125713 60.785411-125.268028 76.559677-10.229992 2.77623-14.399965 8.813736-12.530384 18.099217 2.77316 8.340969 9.265014 11.586896 19.475564 9.738805 68.671009-17.645892 116.455315-47.78226 143.385665-90.470501C548.155966 638.883829 596.410993 669.490917 660.440285 683.418115c11.135618 1.851161 18.099217-1.39579 20.891819-9.736758 0.904603-9.305947-4.169973-15.325034-15.325034-18.098193-54.765301-10.211573-96.510054-36.196387-125.267005-77.959559l130.834814 0C679.936315 577.624627 684.578032 572.981886 685.504124 563.694359zM505.940492 442.61677c19.493983-12.983709 34.326806-25.985838 44.554752-38.987966l91.869361 0c8.338922 0 10.641361 3.715625 6.961552 11.132548-9.284457 18.590404-22.287609 33.422204-38.987966 44.556798-23.193235-19.495006-39.915082-32.025391-50.104141-37.5932-8.360412-4.622274-14.853289-3.698229-19.493983 2.792603-3.719718 7.436366-2.321882 13.908778 4.189416 19.475564 14.832823 10.227945 28.288277 20.438495 40.365336 30.629601-23.212678 11.134595-52.443419 18.568914-87.694271 22.267143-10.232039 1.86958-14.854313 6.963599-13.927197 15.325034 1.848091 8.339946 7.868201 12.059664 18.096147 11.133571 98.358145-8.360412 158.200068-47.78226 179.563632-118.324896 7.416923-19.495006 1.851161-29.230742-16.70138-29.230742l-90.467431 0c3.676739-7.4159 2.301416-13.908778-4.192485-19.475564-8.340969-5.566786-14.851243-5.095042-19.475564 1.37737-13.925151 23.211654-34.797527 44.554752-62.653969 64.030315-8.339946 6.512321-9.734712 13.473873-4.167926 20.891819C489.241158 448.184579 496.656035 448.184579 505.940492 442.61677zM365.366873 391.096373c18.550495 13.928221 33.403784 26.460652 44.538379 37.5932 6.470365 5.567809 12.982686 5.567809 19.473517 0 4.643764-6.472412 4.190439-12.983709-1.37737-19.49296-8.359388-10.190083-23.663956-23.174815-45.932122-38.97057-6.512321-3.700275-12.531408-2.774183-18.099217 2.793626C359.307877 380.453988 359.800088 386.475122 365.366873 391.096373zM369.537869 508.025479c21.322631-8.338922 46.385447-20.400632 75.16491-36.175921l0 44.536332c0.904603 8.360412 6.02011 12.530384 15.303544 12.530384 9.267061-0.926092 13.928221-5.566786 13.928221-13.927197L473.934544 363.262444c-0.943488-7.417947-5.567809-11.585873-13.928221-12.531408-9.282411 0.945535-14.397918 5.114484-15.303544 12.531408l0 76.561723c-17.646915 11.134595-46.424332 25.059745-86.299505 41.762149-7.436366 3.718695-9.757225 9.739828-6.963599 18.10024C355.136881 508.025479 361.177458 510.818081 369.537869 508.025479zM511.999488 63.48694c247.704568 0 448.51306 200.808492 448.51306 448.51306 0 247.705592-200.807469 448.512037-448.51306 448.512037-247.704568 0-448.51306-200.806445-448.51306-448.512037C63.486428 264.295432 264.29492 63.48694 511.999488 63.48694z" fill="#FF5353" p-id="4701"></path></svg>