<?xml version="1.0" standalone="no"?><!DOCTYPE svg PUBLIC "-//W3C//DTD SVG 1.1//EN" "http://www.w3.org/Graphics/SVG/1.1/DTD/svg11.dtd"><svg t="1759981649047" class="icon" viewBox="0 0 1024 1024" version="1.1" xmlns="http://www.w3.org/2000/svg" p-id="4416" xmlns:xlink="http://www.w3.org/1999/xlink" width="200" height="200"><path d="M0.023499 0h564.380096l459.525908 459.565907V1024L0.023499 0z m513.063451 282.193048c-11.76846 11.12149-24.517875 20.27007-29.752634 21.582009-8.827595 1.95291-16.34225-3.92782-55.414457-42.999026-32.528507-32.529507-40.539139-41.522094-43.645997-49.532727-1.631925-4.248805-0.159993-7.680647 5.556745-13.395385l47.241832-47.247831 83.204181 82.878196 0.495977 0.495977c3.099858 3.100858 10.616513 11.277482 16.673235 17.975175 3.26585-4.247805 7.026677-8.331618 15.369295-16.673235l32.850492-32.858492c6.696693-6.696693 11.440475-11.11149 16.516242-15.194302-6.5427-5.22976-12.103444-10.46052-19.783092-18.151167L504.419348 91.102819c-8.987587-8.992587-14.217347-14.874317-18.30616-20.27007l-12.259437 12.259437c5.556745 4.247805 11.608467 9.644557 20.270069 18.30516l85.657069 85.658068-43.154019 43.15602-89.579889-89.576889 12.41843-12.42443c8.50161-8.50661 13.73237-13.0754 18.96713-17.003219l-12.754415-12.755415c-4.083813 5.727737-8.005633 9.975542-16.99922 18.96713l-72.416676 72.416676c-8.49761 8.49761-10.952497 13.893362-9.15358 20.270069 2.780872 11.277482 13.73337 24.518875 50.841667 61.626172 42.172064 42.172064 52.472592 49.851712 64.406044 48.714764 8.171625-0.980955 18.30616-7.19467 38.084252-23.380927-3.595835-4.898775-5.88073-9.477565-7.353663-14.872317z m179.993739 137.48269c7.84464 7.856639 13.0754 13.738369 17.488197 19.454107l11.77246-11.76246c-5.726737-4.092812-10.956497-8.661602-19.6171-17.334205l-48.394779-48.384779c11.938452-8.331618 20.114077-15.196303 33.841447-27.949717l35.309379 35.309379c7.515655 7.524655 12.744415 13.406385 17.334205 19.288115l11.76346-11.76346c-5.394752-3.762827-10.791505-8.50661-19.442108-17.168212l-35.153386-35.144387c22.551965-21.903995 22.551965-21.903995 28.775679-26.481785l-12.590422-12.590422c-4.247805 5.89173-7.358662 9.312573-18.472152 20.435062-2.61388 2.61588-4.247805 4.247805-8.175625 8.175625l-29.262657-29.262657c3.92582-1.31194 10.304527-3.430843 13.405385-4.57779 12.590422-5.064768 12.590422-5.064768 17.820182-6.377707l-8.49761-15.03931c-5.072767 3.760827-13.085399 7.523655-24.84886 11.442475-20.105077 7.038677-39.888169 9.80955-60.643216 8.992587 2.118903 6.376707 2.770873 9.644557 2.60488 15.70028 16.352249-0.330985 29.425649-1.96391 45.115929-5.88973l34.327425 34.326424c-10.127535 9.80955-24.18689 21.902995-33.34547 28.446695l-45.602906-45.605907c-6.873685-6.873685-11.608467-12.268437-16.517242-18.801137l-11.76446 11.77246c7.026677 5.715738 12.756415 10.780505 19.133121 17.158212l42.815035 42.835034c-22.556965 11.76246-44.459959 15.02831-72.738661 10.294528-15.02931-2.283895-30.077619-7.524655-47.076839-16.021265 0 5.88173-0.817962 10.295527-3.106858 17.159212 26.479785 11.12149 50.026704 16.020265 74.213594 15.70028 20.106077-0.164992 35.144387-4.092812 53.780531-13.571377-17.00322 38.576229-15.534287 82.547211 4.249805 129.465057 6.873685-2.61588 10.954497-3.431842 17.65419-3.91882-13.561378-26.646777-19.287115-50.026704-19.121122-77.326451 0.153993-16.177257 3.098858-29.913627 9.311572-44.622951l43.654997 43.638997z m-24.673868 111.345889c30.72859 3.594835 52.145607 2.448888 79.445354-4.249805-1.632925 13.397385-3.26885 23.53592-6.048723 37.758267l15.69228-0.328985c2.779872-18.142167 2.943865-20.92104 5.063768-41.687087 7.84764-2.61288 14.38834-5.23076 28.611686-11.929452 6.5327-2.944865 7.84464-3.595835 11.11149-4.57779l-6.211714-14.389339c-13.72837 8.50661-15.69028 9.488564-32.198523 15.855272 0-0.981955 0-1.30194 0.152993-3.100858 0.496977-8.340617 0.66197-15.370295 0.66197-31.712544h-13.72737c0 17.65519-0.173992 22.719957-1.476932 39.393192-8.010632 2.127902-15.69128 3.597835-24.684867 4.745782-19.783092 2.446888-33.345469 1.96191-54.762487-1.798918 0.664969 6.5327 0.167992 9.645557-1.628925 16.022265z m70.617759-65.720984c24.519875-2.283895 38.906214-5.88173 62.121149-16.021264l-6.046723-13.561378c-11.12149 5.88073-16.682234 7.84364-26.655776 10.625513-10.285528 2.448888-16.34225 3.26485-29.41865 3.595834 0.816963 5.717738 0.816963 9.966543 0 15.361295z m126.198208 10.140535c-4.414797-3.110857-8.992587-7.360662-16.838228-15.205302l-12.591422-12.589422c6.864685-21.902995 7.19367-23.53592 9.645558-37.107297l-13.573377-2.780872c-1.632925 12.103444-3.420843 21.417017-6.366708 29.593641l-18.968129-18.968129c-6.696693-6.697693-10.614513-11.277482-15.027311-16.99322l-11.288482 11.277482c5.560745 4.247805 10.625512 8.662602 16.839227 14.874317l42.669042 42.669042c7.349663 7.348663 10.614513 10.945498 14.709325 16.020265l10.790505-10.790505z m0.320985 102.982273c14.231347-7.682647 21.416017-12.589422 40.053162-27.949717 5.075767 5.064768 9.15858 9.79955 12.425429 14.056355l11.275483-11.277482c-4.742782-3.438842-9.312573-7.355662-16.673235-14.717325l-31.874537-31.877537c3.107857-1.797917 8.49561-5.23076 12.267437-7.679647 17.65519-11.442475 17.65519-11.442475 22.885949-13.72837l-10.141534-14.38834c-5.559745 5.88173-13.0744 11.442475-25.664822 19.453107-20.600054 13.0764-43.154019 22.88495-59.507269 26.1518 3.27685-11.76346 6.222714-24.18689 9.644558-43.971982l-12.744416-2.944865c-1.798917 13.571377-6.5427 34.328424-11.772459 49.695719l7.359662 1.146948c-0.165992 4.085812-0.817962 8.012632-2.129902 12.910407 10.304527-1.797917 14.056355-2.61388 22.066987-5.063767-11.605467 19.453107-19.772092 38.739222-23.701912 54.761486-25.995807 4.083813-50.017704 1.30394-79.600347-9.320572 0.318985 6.5427-0.165992 10.304527-2.130902 16.187257 30.399605 8.827595 54.432502 11.276482 78.630391 8.009632-3.92682 22.553965-2.945865 43.157019 2.770873 70.774752 6.059722-2.120903 9.654557-2.770873 16.684234-2.935865-5.075767-17.171212-6.863685-28.776679-7.028677-43.972982-0.165992-9.321572 0.64997-18.968129 1.95291-26.160799 18.645144-4.56679 29.591642-8.660602 44.952937-17.158213z m-12.746415-57.874343c5.550745-2.284895 7.515655-3.26785 15.69028-7.184671l26.978761 26.969763-7.037676 5.724737c-10.132535 8.167625-17.813182 13.562378-28.271703 19.444107-12.753415 6.873685-22.233979 10.791505-36.127342 14.553332 6.050722-20.103077 14.545332-37.758267 28.76768-59.507268z" fill="#bfbfbf" p-id="4417"></path></svg>