<?xml version="1.0" standalone="no"?><!DOCTYPE svg PUBLIC "-//W3C//DTD SVG 1.1//EN" "http://www.w3.org/Graphics/SVG/1.1/DTD/svg11.dtd"><svg t="1759981500839" class="icon" viewBox="0 0 1024 1024" version="1.1" xmlns="http://www.w3.org/2000/svg" p-id="4854" xmlns:xlink="http://www.w3.org/1999/xlink" width="200" height="200"><path d="M0 0l1024 1024V523.605333L497.834667 0z m526.506667 179.2l-7.509334 7.509333L484.693333 152.405333a146.090667 146.090667 0 0 1-19.114666 5.973334l-71.168 71.168-7.850667-7.68 60.074667-60.074667c-22.186667 2.389333-46.08 0.341333-71.68-5.973333l1.706666-11.605334c37.546667 10.069333 70.826667 10.069333 99.669334-0.341333L429.568 97.28l7.509333-7.509333z m-54.272 59.904h-11.605334c1.877333-16.725333 1.706667-36.522667-0.682666-59.562667h10.581333a307.029333 307.029333 0 0 1 1.706667 59.562667z m39.253333 28.501333a482.645333 482.645333 0 0 1-53.930667 23.04l-3.754666-10.24a446.976 446.976 0 0 0 53.589333-22.016z m100.522667 41.642667l-6.997334 6.826667-20.821333-20.821334-11.264 11.264 17.578667 17.578667-40.106667 40.277333c-6.314667 6.314667-12.458667 6.485333-18.432 0.682667l-8.704-8.874667 4.949333-8.533333 8.021334 8.704c2.730667 2.730667 5.802667 2.56 8.704-0.341333l32.085333-31.914667-10.752-10.752a48.810667 48.810667 0 0 1-5.632 4.949333c-1.194667 6.826667-2.56 14.165333-4.437333 22.016l-8.533334 1.706667c2.730667-7.68 4.949333-13.994667 6.314667-18.773333a84.138667 84.138667 0 0 1-36.864 13.312l-0.512-9.386667a71.850667 71.850667 0 0 0 43.349333-20.138667l-13.994666-13.994666a39.594667 39.594667 0 0 1-4.266667 3.584c-0.853333 6.314667-1.877333 13.141333-3.242667 20.48l-8.533333 1.706666c2.218667-6.997333 3.925333-12.8 5.12-17.578666a77.994667 77.994667 0 0 1-30.378667 11.264l-0.682666-9.386667a66.901333 66.901333 0 0 0 35.669333-16.384l-10.581333-10.752-43.349334 43.52-6.997333-6.997333 50.176-50.005334 17.749333 17.749334 11.264-11.264-22.016-22.016 6.997334-6.826667z m-87.210667-57.002667h-10.581333a156.842667 156.842667 0 0 0-2.048-34.133333h10.581333a173.056 173.056 0 0 1 2.048 34.133333z m26.794667-24.576h-10.752a144.042667 144.042667 0 0 0-0.512-32.938666l10.752 0.341333a175.616 175.616 0 0 1 0.512 32.597333z m15.018666 72.533334l11.264-11.264-13.653333-13.653334-11.264 11.264z m13.482667-61.098667l8.192-8.362667 7.509333 7.338667-8.362666 8.362667 18.090666 18.090666 8.362667-8.192 7.338667 7.338667-8.362667 8.192 16.725333 16.725333-7.168 7.168-16.725333-16.725333-7.338667 7.509333-7.338666-7.509333 7.338666-7.338667-18.090666-18.090666-7.509334 7.509333-7.338666-7.338667 7.509333-7.509333-15.872-15.872 7.168-6.997333z m147.968 138.922667l-35.84 35.84-28.330667-28.330667-17.408 17.408 34.645334 34.816-7.338667 7.338667-34.645333-34.816-22.016 22.016a209.749333 209.749333 0 0 0 19.797333 22.186666c8.021333 8.021333 14.848 14.336 20.650667 19.626667l-9.728 5.461333-17.237334-17.578666c-18.602667-18.944-29.696-33.450667-33.109333-43.52s-2.218667-20.138667 2.048-33.792a118.954667 118.954667 0 0 1-40.789333 9.728l1.024-10.922667c20.650667-1.194667 41.984-9.386667 64-24.405333l5.973333 8.704a201.216 201.216 0 0 1-20.309333 12.288c-5.12 14.848-5.802667 26.794667-2.218667 35.84a57.002667 57.002667 0 0 0 3.584 7.338666l45.397333-45.397333-30.037333-30.037333 35.84-35.84z m-15.018667-0.341334L662.186667 326.826667 640.853333 348.16l50.858667 50.858667z m-1.365333 124.757334a143.189333 143.189333 0 0 1-43.52-4.437334l1.536-11.264a129.365333 129.365333 0 0 0 41.472 5.802667z m31.744-5.290667l10.24-10.24 7.850667 7.68-10.24 10.410667 34.816 34.986666-7.168 7.168-34.986667-34.986666-23.381333 23.381333c-6.314667 6.314667-12.8 6.314667-19.285334-0.170667l-11.776-11.776 5.461334-8.874666c3.584 4.096 6.997333 8.021333 10.410666 11.264s6.144 3.072 9.386667 0l21.333333-21.504-35.84-35.84 7.338667-7.338667z m52.224-58.538667l-12.288 2.56 40.96 40.96-5.802667 5.973334a128.682667 128.682667 0 0 1-40.96-2.730667c6.656 16.042667 16.725333 32.938667 30.378667 50.517333l-10.581333 3.584c-14.848-20.138667-25.258667-39.082667-31.573334-57.344-19.114667-6.144-38.570667-16.213333-58.709333-30.72l3.584-10.069333c17.749333 13.312 34.986667 23.210667 51.882667 29.525333a117.930667 117.930667 0 0 1-3.584-28.16 132.437333 132.437333 0 0 1-24.746667-2.901333l1.024-10.581333a123.562667 123.562667 0 0 0 54.784 0.341333zM744.106667 533.674667l9.557333 0.341333a233.301333 233.301333 0 0 1 4.949333 42.837333h-10.922666a289.28 289.28 0 0 0-3.584-43.178666z m29.525333-59.050667a130.901333 130.901333 0 0 0 34.474667 4.778667l-36.864-36.864h-3.072a105.301333 105.301333 0 0 0 5.461333 32.085333z m114.005333 60.245333a191.317333 191.317333 0 0 1-33.962666 13.141334L783.36 618.325333l-7.509333-7.509333 58.709333-58.709333a164.010667 164.010667 0 0 1-24.234667 2.218666l5.632-10.410666a166.4 166.4 0 0 0 67.925334-19.626667z m13.482667 22.528a135.338667 135.338667 0 0 1-18.432 11.434667l15.530667 15.530667 21.845333-21.845334 7.509333 7.509334-21.845333 21.845333 24.234667 24.234667-7.338667 7.338666-24.234667-24.064-25.429333 25.258667 28.16 28.16-7.338667 7.168-27.989333-27.989333-33.962667 33.792-7.509333-7.509334 33.792-33.962666-30.890667-30.890667 7.168-7.338667 31.061334 31.061334 25.258666-25.429334-17.749333-17.92a111.786667 111.786667 0 0 1-28.501333 8.874667l1.536-11.093333c16.042667-3.242667 32.256-10.922667 48.64-22.528z" fill="#bfbfbf" p-id="4855"></path></svg>