<?xml version="1.0" standalone="no"?><!DOCTYPE svg PUBLIC "-//W3C//DTD SVG 1.1//EN" "http://www.w3.org/Graphics/SVG/1.1/DTD/svg11.dtd"><svg t="1759981788194" class="icon" viewBox="0 0 1029 1024" version="1.1" xmlns="http://www.w3.org/2000/svg" p-id="6684" xmlns:xlink="http://www.w3.org/1999/xlink" width="200.9765625" height="200"><path d="M865.959178 441.150258l48.22422 48.22422-37.335764 37.335764-48.22422-48.22422 37.335764-37.335764Z" fill="#bfbfbf" p-id="6685"></path><path d="M717.9925 432.40375l28.39-28.39-33.835-33.835c-11.02 11.02-20.67875 20.29-28.97375 27.80625L717.9925 432.40375z" fill="#bfbfbf" p-id="6686"></path><path d="M784.293175 522.827718l34.612545-34.612545 48.22422 48.22422-34.612545 34.612545-48.22422-48.22422Z" fill="#bfbfbf" p-id="6687"></path><path d="M667.04625 324.67625l-28.39125 28.39125 34.03 34.03c5.96125-5.44375 15.6825-14.6525 29.16875-27.61375L667.04625 324.67625z" fill="#bfbfbf" p-id="6688"></path><path d="M938.505226 588.364862l-49.003798-49.003798 37.335764-37.335764 49.003798 49.003798-37.335764 37.335764Z" fill="#bfbfbf" p-id="6689"></path><path d="M640.75 0l-640.75 0L1028.2275 1024 1028.2275 387.47875 640.75 0zM475.70125 313.59125c-6.73875 1.685-13.7725 1.1325-21.09875-1.6525-7.32125-2.7875-15.26375-7.875-23.82-15.26375-8.55625-7.39-20.58125-18.83-36.07125-34.32125-15.4925-15.49375-29.03625-29.29875-40.64-41.41875-11.6-12.12375-18.93-20.29-21.97375-24.5025-3.0475-4.21375-4.73-8.17-5.055-11.8625-0.325-3.69625 0.61375-7.35875 2.81875-10.98625 2.20375-3.63 5.83375-7.97125 10.89-13.0275l59.30875-59.30875c11.92625-11.92625 20.67625-21.32625 26.2525-28.19625 3.23875 5.5725 6.705 10.33875 10.4025 14.2925 3.69125 3.9525 4.6975 6.77625 3.015 8.46-1.03875 1.03875-2.92 1.1025-5.64 0.19375-1.8175-0.51625-6.28875 2.65625-13.4175 9.5275l103.255 103.25625 50.17-50.17c-64.17-64.17-104.81375-103.515-121.9225-118.035l14.195-14.195c10.88875 14.00125 31.95375 36.62125 63.1975 67.86625 31.24 31.24 54.70625 53.15 70.3925 65.725-5.3175 3.76125-11.60375 9.27-18.8625 16.52875l-53.86375 53.86375c-7.39 7.39-13.74375 14.6475-19.0575 21.77875L494.37 238.3375l19.835-19.83375-103.255-103.255-55.03 55.03c-4.92875 4.92875-7.49 9.30125-7.68125 13.1275-0.1975 3.825 2.0425 8.4575 6.70875 13.90125 7.775 9.0775 19.3775 21.325 34.8075 36.7525 8.16625 8.16625 19.15375 18.765 32.96 31.79375 13.8075 13.02875 24.045 21.4575 30.725 25.28 6.675 3.825 12.76625 5.1225 18.27875 3.88875 5.50875-1.23 12.02-4.95875 19.5425-11.18125 1.945 7.39 4.925 13.48125 8.945 18.27875C490.6075 308.08125 482.44125 311.91 475.70125 313.59125zM503.12125 388.2625c15.2975-12.44875 29.48875-25.2125 42.585-38.3075l73.69875-73.6975c-15.17125 4.7975-30.27125 8.23-45.30875 10.305-0.13-6.87-0.975-13.15875-2.5275-18.8625 17.63 0 39.665-5.12 66.115-15.36125 26.44125-10.24125 45.82375-21.38875 58.14125-33.4475 3.24 8.1675 6.60875 14.64875 10.1125 19.44625 1.165 1.6875 1.3625 2.9175 0.58375 3.69625-0.77625 0.77625-2.205 0.97125-4.2775 0.5825-2.07875-0.39-5.6725 0.35625-10.79375 2.235-5.1225 1.88-15.72 6.70875-31.7925 14.4875L516.92625 402.06875 503.12125 388.2625zM668.6 527.6875c-8.03625 1.55125-14.51625 3.62625-19.445 6.2225-20.74-34.485-34.03-66.95875-39.86375-97.4225-16.85375 1.2975-41.485-4.9275-73.89125-18.6675 1.555-6.485 1.165-13.3575-1.16875-20.6125 27.2225 17.6275 51.65875 25.47375 73.30875 23.5275-0.39-15.425 0.6475-32.40875 3.11125-50.945l14.58375 2.52625c-3.50125 18.27875-4.34375 33.64-2.5275 46.085 11.14375-2.3325 24.69375-10.04625 40.64125-23.13875-16.855-16.335-32.865-31.17625-48.03-44.53125 8.425-6.09125 17.89-14.39 28.39125-24.89s17.56375-18.73 21.19375-24.695c12.185 14.7775 27.35375 31.375 45.5025 49.78 5.05375-4.79875 11.795-11.40625 20.22375-19.835-29.945-29.945-50.62375-49.58625-62.03125-58.92l12.0575-12.05625c14.12875 16.20625 33.76875 36.88 58.91875 62.03125 13.99875-14.25875 22.62-24.30625 25.86375-30.14125 1.81375 3.37 6.09125 8.425 12.8325 15.16875 2.46125 2.46125 3.17625 4.21375 2.14125 5.24875-1.04 1.04-2.82 1.46-5.34875 1.265-2.52625-0.195-10.7275 6.255-24.5975 19.34875 29.03625 29.0375 49.32375 48.29125 60.8625 57.7525l-12.0575 12.0575c-9.4625-11.53625-28.77625-31.89-57.945-61.05875-3.3725 3.11-10.1125 9.72125-20.22375 19.8325 15.81375 15.815 32.14625 30.725 49.00125 44.72625-6.355 4.2775-14.51875 11.40875-24.50125 21.38875-9.98375 9.98375-18.41125 19.44625-25.28 28.39125-14.5225-17.1125-29.88125-33.7725-46.085-49.975-18.67125 15.81375-35.00125 25.27875-49.0025 28.39125C631.32625 469.93375 645.7825 500.98 668.6 527.6875zM970.395 582.13375l-116.47875 116.47875c-5.7025 5.7025-10.47125 9.16875-14.2925 10.40125-3.82625 1.23125-8.33 0.29-13.515-2.8175-5.185-3.115-12.77-9.27125-22.75125-18.47375 2.075-1.29625 3.7625-2.595 5.05625-3.88875 3.63-3.63 5.12-8.75375 4.4725-15.36125 4.53625 6.09125 8.45875 10.7925 11.7625 14.09625 3.3075 3.3075 6.35125 5.18375 9.14 5.64 2.78625 0.45125 5.93125-1.06875 9.43125-4.57l41.61375-41.6125-49.00375-49.0025-17.89 17.89c-14.77875 14.77875-25.215 25.99375-31.3075 33.64125l-14.97375-14.97375c7.78-6.2225 18.99-16.65625 33.64125-31.3075l17.89-17.89-48.22375-48.225c-14.1325 14.1325-27.355 24.4375-39.66875 30.9175-12.315 6.4825-27.16 12.05375-44.52875 16.72375-0.39-7.38875-3.2425-14.00375-8.5575-19.83375 15.945-0.39 30.1375-4.1475 42.585-11.2775 12.4425-7.13125 29.10125-21.13 49.97375-42.00375l60.08625-60.08625c13.35-13.35125 22.49-23.52875 27.42-30.52875 8.5525 10.36875 30.9475 33.6725 67.1825 69.90625 36.2325 36.23125 60.1175 59.2125 71.6575 68.93375C995.8 557.89375 985.56125 566.9675 970.395 582.13375z" fill="#bfbfbf" p-id="6690"></path><path d="M894.179923 632.698194l-49.002914-49.002914 34.612545-34.612545 49.002914 49.002914-34.612545 34.612545Z" fill="#bfbfbf" p-id="6691"></path></svg>