<?xml version="1.0" standalone="no"?><!DOCTYPE svg PUBLIC "-//W3C//DTD SVG 1.1//EN" "http://www.w3.org/Graphics/SVG/1.1/DTD/svg11.dtd"><svg t="1757558704835" class="icon" viewBox="0 0 1024 1024" version="1.1" xmlns="http://www.w3.org/2000/svg" p-id="37469" xmlns:xlink="http://www.w3.org/1999/xlink" width="200" height="200"><path d="M757.654 684.71c12.515-12.503 32.793-12.503 45.308 0l67.962 67.895 0.022 0.022c12.487 12.5 12.477 32.755-0.022 45.242-12.515 12.503-32.793 12.503-45.308 0l-67.962-67.896a32.98 32.98 0 0 1-0.022-0.022c-12.487-12.5-12.477-32.755 0.022-45.242zM862 481c17.673 0 32 14.327 32 32 0 17.673-14.327 32-32 32h-69c-17.673 0-32-14.327-32-32 0-17.673 14.327-32 32-32h69z m8.924-260.29c12.5 12.486 12.51 32.742 0.022 45.241l-0.022 0.022-67.962 67.896c-12.515 12.503-32.793 12.503-45.308 0-12.5-12.487-12.51-32.743-0.022-45.242l0.022-0.022 67.962-67.896c12.515-12.502 32.793-12.502 45.308 0z m-220.732-83.438a88 88 0 0 1 25.806 62.257v624.14c0 48.6-39.399 88-88 88a88 88 0 0 1-62.256-25.806L365.714 725.676a48 48 0 0 0-33.959-14.076H270c-70.692 0-128-57.307-128-128v-144c0-70.692 57.308-128 128-128h61.752a48 48 0 0 0 33.958-14.076l160.032-160.19c34.349-34.383 90.067-34.41 124.45-0.062z" fill="#333333" p-id="37470"></path></svg>