<?xml version="1.0" standalone="no"?><!DOCTYPE svg PUBLIC "-//W3C//DTD SVG 1.1//EN" "http://www.w3.org/Graphics/SVG/1.1/DTD/svg11.dtd"><svg t="1759047133446" class="icon" viewBox="0 0 1024 1024" version="1.1" xmlns="http://www.w3.org/2000/svg" p-id="10687" xmlns:xlink="http://www.w3.org/1999/xlink" width="200" height="200"><path d="M619.4 715.1c13.9 0 25.1 11.2 25.1 25.1 0 13.9-11.2 25.1-25.1 25.1h-82.5v21.5c0 13.9-11.2 25.1-25.1 25.1s-25.1-11.2-25.1-25.1v-21.5h-82.5c-9 0-17.2-4.8-21.7-12.5-4.5-7.8-4.5-17.3 0-25.1 4.5-7.8 12.7-12.5 21.7-12.5h82.5v-57.4h-82.5c-13.9 0-25.1-11.2-25.1-25.1 0-13.9 11.2-25.1 25.1-25.1h72.2l-0.3-0.2-71.7-71.7c-9.8-9.8-9.8-25.7 0-35.5s25.8-9.8 35.5 0l71.7 71.7 0.2 0.3 0.2-0.3 71.7-71.7c6.3-6.3 15.6-8.8 24.2-6.5 8.7 2.3 15.4 9.1 17.7 17.7 2.3 8.7-0.2 17.9-6.5 24.2l-71.7 71.7-0.3 0.2h72.2c13.9 0 25.1 11.2 25.1 25.1 0 13.9-11.2 25.1-25.1 25.1h-82.5V715l82.6 0.1z" fill="#BF0000" p-id="10688"></path><path d="M921.4 570.6h37.3V402.2c-0.1-37.1-33.5-67.1-74.5-67.1H139.4c-41 0-74.4 30-74.5 67.1v168.4h37.3c61.6 0 111.7 45.2 111.7 100.9s-50.1 100.9-111.7 100.9H64.8v134.4c0.1 37.1 33.5 67.1 74.5 67.1H884c41 0 74.4-30 74.5-67.1V772.4h-37.3c-61.6 0-111.7-45.2-111.7-100.9 0.1-55.7 50.3-100.9 111.9-100.9zM896 821v71.7c-0.1 9.8-8.9 17.8-19.8 17.8H147.4c-10.9 0-19.8-8-19.9-17.8V821c83.6-7.9 141-71.9 141-149.5s-58.4-141.6-142-149.5V417.3c0.1-9.8 8.9-17.8 19.8-17.8H876c10.9 0 19.8 8 19.9 17.8V522C812.4 529.9 755 593.9 755 671.5S820.4 813.1 904 821h-8z" p-id="10689"></path><path d="M785.8 336.9L231.3 188.6c-39.7-10.6-79.7 9.7-89.3 45.5l-29 108.4 672.8-5.6z m-607-1.7l18.9-70.6c2.6-9.4 13.2-14.9 23.7-12.1l492.8 131.8-535.4-49.1z" p-id="10690"></path><path d="M711.5 334.3L519.3 108.2c-26.6-31.3-71.1-37.3-99.4-13.4l-128.3 109 24.1 28.4 43-10.5 89.7-70.2c7.5-6.3 19.3-4.7 26.4 3.6l109.1 128.3 127.6 50.9zM785.8 336.9l0.3 47.5L113 342.6" p-id="10691"></path></svg>